<svg width="4" height="8" viewBox="0 0 4 8" fill="none" xmlns="http://www.w3.org/2000/svg">
<path d="M4 7.42779C4.00026 7.29433 3.95381 7.16499 3.86871 7.06222L1.31145 4.00056L3.77738 0.933192C3.8248 0.874765 3.8602 0.807536 3.88157 0.735371C3.90294 0.663205 3.90984 0.587525 3.90188 0.512681C3.89393 0.437837 3.87127 0.365305 3.83521 0.299253C3.79915 0.2332 3.7504 0.174931 3.69176 0.127794C3.63337 0.0803459 3.56619 0.0449134 3.49407 0.0235322C3.42195 0.00215103 3.34632 -0.00475702 3.27153 0.00320511C3.19674 0.0111672 3.12425 0.0338425 3.05825 0.0699277C2.99224 0.106013 2.93401 0.154796 2.8869 0.213474L0.129854 3.6407C0.0458973 3.74291 0 3.87111 0 4.00342C0 4.13572 0.0458973 4.26393 0.129854 4.36613L2.98394 7.79336C3.03186 7.8512 3.09071 7.89901 3.15713 7.93406C3.22354 7.9691 3.29621 7.99069 3.37097 7.99759C3.44574 8.00449 3.52113 7.99656 3.59282 7.97425C3.66452 7.95195 3.73112 7.91571 3.7888 7.86762C3.85428 7.81446 3.90718 7.74746 3.94369 7.67141C3.98021 7.59536 3.99944 7.51216 4 7.42779Z" fill="#D10A12"/>
</svg>
