<svg width="11" height="5" viewBox="0 0 11 5" fill="none" xmlns="http://www.w3.org/2000/svg">
<path d="M10.2132 1.43051e-06C10.0297 -0.000324249 9.85186 0.0577388 9.71055 0.164111L5.50077 3.36069L1.28314 0.278275C1.2028 0.219006 1.11036 0.174745 1.01113 0.148036C0.911907 0.121328 0.807847 0.112699 0.704937 0.122645C0.602026 0.132591 0.502294 0.160915 0.411472 0.205991C0.320651 0.251067 0.24053 0.312006 0.175716 0.385303C0.110476 0.458288 0.0617559 0.542267 0.0323568 0.632413C0.00295767 0.722558 -0.00654091 0.817094 0.00440703 0.910586C0.015355 1.00408 0.0465335 1.09468 0.0961506 1.17719C0.145768 1.2597 0.212845 1.33249 0.293527 1.39137L5.00597 4.83768C5.1465 4.94263 5.32278 5 5.5047 5C5.68662 5 5.8629 4.94263 6.00343 4.83768L10.7159 1.27007C10.7954 1.21017 10.8611 1.13661 10.9093 1.05359C10.9575 0.970575 10.9872 0.879737 10.9967 0.786283C11.0062 0.692828 10.9953 0.598591 10.9646 0.50897C10.9339 0.419349 10.8841 0.336105 10.818 0.264005C10.7449 0.182154 10.6528 0.116029 10.5482 0.0703816C10.4436 0.024734 10.3292 0.000698566 10.2132 1.43051e-06Z" fill="#C6C6C6"/>
</svg>
