<svg width="9" height="18" viewBox="0 0 9 18" fill="none" xmlns="http://www.w3.org/2000/svg">
<path d="M1.90735e-06 1.28747C-0.000584602 1.58777 0.103929 1.87878 0.2954 2.11001L6.04924 8.99874L0.500896 15.9003C0.39421 16.0318 0.314541 16.183 0.266465 16.3454C0.21839 16.5078 0.202858 16.6781 0.22076 16.8465C0.238663 17.0149 0.289647 17.1781 0.370784 17.3267C0.451921 17.4753 0.56161 17.6064 0.693545 17.7125C0.824918 17.8192 0.97608 17.8989 1.13834 17.9471C1.3006 17.9952 1.47077 18.0107 1.63905 17.9928C1.80734 17.9749 1.97043 17.9239 2.11894 17.8427C2.26746 17.7615 2.39848 17.6517 2.50447 17.5197L8.70783 9.80842C8.89673 9.57845 9 9.29 9 8.99231C9 8.69462 8.89673 8.40617 8.70783 8.1762L2.28613 0.464939C2.17831 0.334801 2.04589 0.227226 1.89646 0.148376C1.74703 0.0695248 1.58353 0.0209484 1.41531 0.00542831C1.24709 -0.0100918 1.07746 0.00774956 0.916146 0.05793C0.754828 0.10811 0.604988 0.189644 0.475208 0.297861C0.327877 0.417456 0.208852 0.568226 0.126686 0.739334C0.0445213 0.910442 0.00125694 1.09764 1.90735e-06 1.28747Z" fill="#333333"/>
</svg>
