<svg width="46" height="40" viewBox="0 0 46 40" fill="none" xmlns="http://www.w3.org/2000/svg">
<path d="M45.0876 22.5086C45.0875 22.5084 45.0875 22.5083 45.0874 22.5081L36.7439 1.5009C36.5668 1.05455 36.0623 0.836648 35.6172 1.01421C35.6168 1.01432 35.6165 1.01443 35.6162 1.01464L1.76786 14.5297C1.62982 14.5895 1.51011 14.685 1.42086 14.8063C1.13937 14.953 0.961532 15.2433 0.958496 15.5613V38.1778C0.958496 38.6581 1.34691 39.0476 1.82598 39.0476H38.2603C38.7393 39.0476 39.1278 38.6581 39.1278 38.1778V25.8257L44.6033 23.6389C45.0483 23.4609 45.2651 22.9548 45.0876 22.5086ZM37.3928 37.3079H2.69346V16.4312H37.3928V37.3079ZM15.4325 14.6958L29.9576 8.89211C31.2539 10.2584 33.0502 11.035 34.9309 11.0424L36.3796 14.6958H15.4325ZM39.1278 23.9573V15.5613C39.1278 15.081 38.7393 14.6915 38.2603 14.6915H38.2464L36.4082 10.0621C36.3878 10.0235 36.3641 9.98673 36.3371 9.95248C36.244 9.53353 35.8571 9.24767 35.4305 9.28268C33.6806 9.44263 31.9687 8.70346 30.8823 7.31853C30.612 6.98396 30.1368 6.90078 29.7694 7.12368C29.7281 7.12858 29.6873 7.13619 29.647 7.1463L11.9139 14.227C11.6993 14.3114 11.5277 14.4787 11.4377 14.6915H6.05236L35.4531 2.9527L43.1555 22.3463L39.1278 23.9573Z" fill="url(#paint0_linear)" stroke="url(#paint1_linear)" stroke-width="0.5"/>
<path d="M5.04809 31.4355C6.73231 31.9347 8.05024 33.2546 8.55012 34.9427C8.65975 35.3112 8.99775 35.5637 9.38117 35.5638C9.42617 35.561 9.47085 35.5543 9.51477 35.5438C9.55369 35.5549 9.59349 35.5631 9.63361 35.5682H30.4532C30.489 35.5635 30.5243 35.5562 30.559 35.5464C30.9925 35.6521 31.4292 35.3856 31.5347 34.951C31.5351 34.9494 31.5355 34.9479 31.5358 34.9462C32.0344 33.2563 33.3526 31.9345 35.0379 31.4346C35.4466 31.3093 35.7005 30.9009 35.633 30.4777C35.6446 30.4356 35.6529 30.3925 35.6581 30.349V23.3901C35.653 23.3465 35.6443 23.3034 35.6321 23.2614C35.7001 22.8381 35.446 22.4295 35.037 22.3045C33.3517 21.8047 32.0339 20.4824 31.5367 18.792C31.4111 18.3794 30.9998 18.1241 30.5755 18.1953C30.5354 18.1841 30.4945 18.1759 30.4532 18.1709H9.63361C9.58991 18.1762 9.54665 18.1848 9.50436 18.197C9.08243 18.1296 8.67537 18.3842 8.55012 18.7938C8.05121 20.4834 6.73318 21.8047 5.04809 22.3045C4.6394 22.4298 4.38545 22.8382 4.453 23.2614C4.44172 23.3037 4.43359 23.3466 4.42871 23.3901V30.349C4.4337 30.3899 4.44183 30.4303 4.453 30.4699C4.38187 30.8958 4.63636 31.3088 5.04809 31.4355ZM6.16368 23.7433C7.90558 23.0417 9.28618 21.6573 9.98581 19.9107H30.1001C30.8001 21.6573 32.181 23.0417 33.9231 23.7433V29.9958C32.1818 30.6981 30.8014 32.0823 30.101 33.8285H9.98581C9.28543 32.0823 7.90504 30.6981 6.16368 29.9958V23.7433Z" fill="url(#paint2_linear)" stroke="url(#paint3_linear)" stroke-width="0.5"/>
<path d="M20.0433 32.0887C22.9179 32.0887 25.2482 29.7521 25.2482 26.8695C25.2482 23.987 22.9179 21.6504 20.0433 21.6504C17.1687 21.6504 14.8384 23.987 14.8384 26.8695C14.8412 29.7509 17.1698 32.0859 20.0433 32.0887ZM20.0433 23.3901C21.9597 23.3901 23.5132 24.9479 23.5132 26.8695C23.5132 28.7912 21.9597 30.349 20.0433 30.349C18.1269 30.349 16.5733 28.7912 16.5733 26.8695C16.5733 24.9479 18.1269 23.3901 20.0433 23.3901Z" fill="url(#paint4_linear)" stroke="url(#paint5_linear)" stroke-width="0.5"/>
<path d="M10.5009 28.1743C11.2195 28.1743 11.8022 27.5901 11.8022 26.8695C11.8022 26.149 11.2195 25.5648 10.5009 25.5648C9.78233 25.5648 9.19971 26.149 9.19971 26.8695C9.19971 27.5902 9.78233 28.1743 10.5009 28.1743ZM10.5009 26.4346C10.7405 26.4346 10.9347 26.6294 10.9347 26.8695C10.9347 27.1097 10.7405 27.3045 10.5009 27.3045C10.2614 27.3045 10.0672 27.1097 10.0672 26.8695C10.0672 26.6294 10.2614 26.4346 10.5009 26.4346Z" fill="url(#paint6_linear)" stroke="url(#paint7_linear)" stroke-width="0.5"/>
<path d="M29.5854 28.1743C30.304 28.1743 30.8866 27.5901 30.8866 26.8695C30.8866 26.149 30.304 25.5648 29.5854 25.5648C28.8668 25.5648 28.2842 26.149 28.2842 26.8695C28.2842 27.5902 28.8668 28.1743 29.5854 28.1743ZM29.5854 26.4346C29.8249 26.4346 30.0191 26.6294 30.0191 26.8695C30.0191 27.1097 29.8249 27.3045 29.5854 27.3045C29.3459 27.3045 29.1517 27.1097 29.1517 26.8695C29.1517 26.6294 29.3459 26.4346 29.5854 26.4346Z" fill="url(#paint8_linear)" stroke="url(#paint9_linear)" stroke-width="0.5"/>
<defs>
<linearGradient id="paint0_linear" x1="0.958496" y1="0.952377" x2="30.1163" y2="48.3046" gradientUnits="userSpaceOnUse">
<stop stop-color="#C5C5C5"/>
<stop offset="1" stop-color="#9A9A9A"/>
</linearGradient>
<linearGradient id="paint1_linear" x1="0.958496" y1="0.952377" x2="30.1163" y2="48.3046" gradientUnits="userSpaceOnUse">
<stop stop-color="#C5C5C5"/>
<stop offset="1" stop-color="#9A9A9A"/>
</linearGradient>
<linearGradient id="paint2_linear" x1="4.42871" y1="18.1709" x2="14.6755" y2="43.9196" gradientUnits="userSpaceOnUse">
<stop stop-color="#C5C5C5"/>
<stop offset="1" stop-color="#9A9A9A"/>
</linearGradient>
<linearGradient id="paint3_linear" x1="4.42871" y1="18.1709" x2="14.6755" y2="43.9196" gradientUnits="userSpaceOnUse">
<stop stop-color="#C5C5C5"/>
<stop offset="1" stop-color="#9A9A9A"/>
</linearGradient>
<linearGradient id="paint4_linear" x1="14.8384" y1="21.6504" x2="23.3095" y2="33.4773" gradientUnits="userSpaceOnUse">
<stop stop-color="#C5C5C5"/>
<stop offset="1" stop-color="#9A9A9A"/>
</linearGradient>
<linearGradient id="paint5_linear" x1="14.8384" y1="21.6504" x2="23.3095" y2="33.4773" gradientUnits="userSpaceOnUse">
<stop stop-color="#C5C5C5"/>
<stop offset="1" stop-color="#9A9A9A"/>
</linearGradient>
<linearGradient id="paint6_linear" x1="9.19971" y1="25.5648" x2="11.3175" y2="28.5215" gradientUnits="userSpaceOnUse">
<stop stop-color="#C5C5C5"/>
<stop offset="1" stop-color="#9A9A9A"/>
</linearGradient>
<linearGradient id="paint7_linear" x1="9.19971" y1="25.5648" x2="11.3175" y2="28.5215" gradientUnits="userSpaceOnUse">
<stop stop-color="#C5C5C5"/>
<stop offset="1" stop-color="#9A9A9A"/>
</linearGradient>
<linearGradient id="paint8_linear" x1="28.2842" y1="25.5648" x2="30.402" y2="28.5215" gradientUnits="userSpaceOnUse">
<stop stop-color="#C5C5C5"/>
<stop offset="1" stop-color="#9A9A9A"/>
</linearGradient>
<linearGradient id="paint9_linear" x1="28.2842" y1="25.5648" x2="30.402" y2="28.5215" gradientUnits="userSpaceOnUse">
<stop stop-color="#C5C5C5"/>
<stop offset="1" stop-color="#9A9A9A"/>
</linearGradient>
</defs>
</svg>
