<svg width="45" height="40" viewBox="0 0 45 40" fill="none" xmlns="http://www.w3.org/2000/svg">
<path d="M39.4202 27.7902C38.7758 27.4524 37.9797 27.7013 37.6423 28.3457C34.7279 33.9094 29.0191 37.3657 22.744 37.3657C13.4878 37.3657 5.95564 29.8443 5.93755 20.5922L6.99452 21.6492C7.25171 21.9064 7.58881 22.035 7.92583 22.035C8.26284 22.035 8.60003 21.9065 8.85713 21.6492C9.37152 21.1348 9.37152 20.3009 8.85713 19.7865L5.61099 16.5403C5.36951 16.2641 5.01555 16.0888 4.61997 16.0888C4.20981 16.0888 3.84356 16.2764 3.60199 16.5703L0.385792 19.7865C-0.128597 20.3008 -0.128597 21.1348 0.385792 21.6492C0.900092 22.1636 1.73411 22.1635 2.2485 21.6492L3.30327 20.5945C3.31249 25.774 5.33351 30.6423 8.99702 34.3058C12.669 37.9777 17.5511 40 22.744 40C30.0024 40 36.6051 36.0027 39.9758 29.5681C40.3134 28.9237 40.0646 28.1277 39.4202 27.7902Z" fill="#333333"/>
<path d="M39.4202 27.7902C38.7758 27.4524 37.9797 27.7013 37.6423 28.3457C34.7279 33.9094 29.0191 37.3657 22.744 37.3657C13.4878 37.3657 5.95564 29.8443 5.93755 20.5922L6.99452 21.6492C7.25171 21.9064 7.58881 22.035 7.92583 22.035C8.26284 22.035 8.60003 21.9065 8.85713 21.6492C9.37152 21.1348 9.37152 20.3009 8.85713 19.7865L5.61099 16.5403C5.36951 16.2641 5.01555 16.0888 4.61997 16.0888C4.20981 16.0888 3.84356 16.2764 3.60199 16.5703L0.385792 19.7865C-0.128597 20.3008 -0.128597 21.1348 0.385792 21.6492C0.900092 22.1636 1.73411 22.1635 2.2485 21.6492L3.30327 20.5945C3.31249 25.774 5.33351 30.6423 8.99702 34.3058C12.669 37.9777 17.5511 40 22.744 40C30.0024 40 36.6051 36.0027 39.9758 29.5681C40.3134 28.9237 40.0646 28.1277 39.4202 27.7902Z" fill="url(#paint0_linear)"/>
<path d="M44.5728 18.3508C44.0584 17.8364 43.2244 17.8364 42.71 18.3508L41.6552 19.4056C41.646 14.2259 39.625 9.35778 35.9614 5.69419C32.2896 2.02226 27.4075 0 22.2145 0C14.9561 0 8.35339 3.99727 4.98273 10.4319C4.6451 11.0762 4.89387 11.8723 5.5383 12.2098C6.18256 12.5474 6.97864 12.2986 7.31618 11.6543C10.2306 6.09056 15.9394 2.63429 22.2145 2.63429C31.4705 2.63429 39.0026 10.1557 39.0209 19.4076L37.964 18.3507C37.4497 17.8363 36.6157 17.8363 36.1013 18.3507C35.5869 18.8651 35.5869 19.699 36.1013 20.2134L39.3466 23.4587C39.5881 23.7354 39.9424 23.9111 40.3385 23.9111C40.7485 23.9111 41.1146 23.7237 41.3562 23.43L44.5727 20.2135C45.0871 19.699 45.0871 18.8651 44.5728 18.3508Z" fill="#333333"/>
<path d="M44.5728 18.3508C44.0584 17.8364 43.2244 17.8364 42.71 18.3508L41.6552 19.4056C41.646 14.2259 39.625 9.35778 35.9614 5.69419C32.2896 2.02226 27.4075 0 22.2145 0C14.9561 0 8.35339 3.99727 4.98273 10.4319C4.6451 11.0762 4.89387 11.8723 5.5383 12.2098C6.18256 12.5474 6.97864 12.2986 7.31618 11.6543C10.2306 6.09056 15.9394 2.63429 22.2145 2.63429C31.4705 2.63429 39.0026 10.1557 39.0209 19.4076L37.964 18.3507C37.4497 17.8363 36.6157 17.8363 36.1013 18.3507C35.5869 18.8651 35.5869 19.699 36.1013 20.2134L39.3466 23.4587C39.5881 23.7354 39.9424 23.9111 40.3385 23.9111C40.7485 23.9111 41.1146 23.7237 41.3562 23.43L44.5727 20.2135C45.0871 19.699 45.0871 18.8651 44.5728 18.3508Z" fill="url(#paint1_linear)"/>
<path d="M24.28 18.4874C23.0884 18.0662 21.7707 17.5575 21.0317 16.9779C20.7993 16.7958 20.699 16.3787 20.7816 15.9401C20.8228 15.7212 21.0154 14.9899 21.7636 14.7645C22.9918 14.3946 23.8342 14.8852 24.1393 15.1133C24.7221 15.5488 25.5473 15.4296 25.9829 14.847C26.4185 14.2644 26.2993 13.439 25.7167 13.0034C25.4402 12.7967 24.7477 12.3436 23.7549 12.1235V11.5873C23.7549 10.8599 23.1652 10.2702 22.4378 10.2702C21.7104 10.2702 21.1206 10.8599 21.1206 11.5873V12.2093C21.0816 12.2202 21.043 12.2302 21.0038 12.2421C19.5612 12.6766 18.4841 13.9067 18.1929 15.4521C17.9248 16.8746 18.3896 18.2535 19.4059 19.0506C20.2432 19.7074 21.401 20.2637 23.4021 20.9711C24.7343 21.442 24.7055 22.5203 24.6312 22.962C24.4807 23.8576 23.7273 24.8254 22.429 24.8341C21.1558 24.8431 20.7591 24.7796 19.7811 24.1398C19.1724 23.7415 18.356 23.9121 17.9577 24.5209C17.5595 25.1297 17.7301 25.946 18.3389 26.3442C19.3938 27.0343 20.1721 27.3142 21.1206 27.4163V28.0184C21.1206 28.7458 21.7104 29.3355 22.4378 29.3355C23.1652 29.3355 23.7549 28.7458 23.7549 28.0184V27.2898C24.4806 27.09 25.1419 26.7251 25.707 26.2058C26.5079 25.47 27.0484 24.4731 27.229 23.3987C27.5963 21.2145 26.4112 19.2407 24.28 18.4874Z" fill="#333333"/>
<path d="M24.28 18.4874C23.0884 18.0662 21.7707 17.5575 21.0317 16.9779C20.7993 16.7958 20.699 16.3787 20.7816 15.9401C20.8228 15.7212 21.0154 14.9899 21.7636 14.7645C22.9918 14.3946 23.8342 14.8852 24.1393 15.1133C24.7221 15.5488 25.5473 15.4296 25.9829 14.847C26.4185 14.2644 26.2993 13.439 25.7167 13.0034C25.4402 12.7967 24.7477 12.3436 23.7549 12.1235V11.5873C23.7549 10.8599 23.1652 10.2702 22.4378 10.2702C21.7104 10.2702 21.1206 10.8599 21.1206 11.5873V12.2093C21.0816 12.2202 21.043 12.2302 21.0038 12.2421C19.5612 12.6766 18.4841 13.9067 18.1929 15.4521C17.9248 16.8746 18.3896 18.2535 19.4059 19.0506C20.2432 19.7074 21.401 20.2637 23.4021 20.9711C24.7343 21.442 24.7055 22.5203 24.6312 22.962C24.4807 23.8576 23.7273 24.8254 22.429 24.8341C21.1558 24.8431 20.7591 24.7796 19.7811 24.1398C19.1724 23.7415 18.356 23.9121 17.9577 24.5209C17.5595 25.1297 17.7301 25.946 18.3389 26.3442C19.3938 27.0343 20.1721 27.3142 21.1206 27.4163V28.0184C21.1206 28.7458 21.7104 29.3355 22.4378 29.3355C23.1652 29.3355 23.7549 28.7458 23.7549 28.0184V27.2898C24.4806 27.09 25.1419 26.7251 25.707 26.2058C26.5079 25.47 27.0484 24.4731 27.229 23.3987C27.5963 21.2145 26.4112 19.2407 24.28 18.4874Z" fill="url(#paint2_linear)"/>
<defs>
<linearGradient id="paint0_linear" x1="0" y1="16.0888" x2="14.7714" y2="50.7923" gradientUnits="userSpaceOnUse">
<stop stop-color="#C5C5C5"/>
<stop offset="1" stop-color="#9A9A9A"/>
</linearGradient>
<linearGradient id="paint1_linear" x1="4.83203" y1="0" x2="19.6033" y2="34.7034" gradientUnits="userSpaceOnUse">
<stop stop-color="#C5C5C5"/>
<stop offset="1" stop-color="#9A9A9A"/>
</linearGradient>
<linearGradient id="paint2_linear" x1="17.7427" y1="10.2702" x2="33.1082" y2="21.0484" gradientUnits="userSpaceOnUse">
<stop stop-color="#C5C5C5"/>
<stop offset="1" stop-color="#9A9A9A"/>
</linearGradient>
</defs>
</svg>
